<svg width="100" height="100" viewBox="0 0 100 100" fill="none" xmlns="http://www.w3.org/2000/svg">
<rect width="100" height="100" rx="20" fill="#FFF8F6"/>
<g clip-path="url(#clip0_157_2382)">
<path d="M53.4206 49.2092L51.0089 45.3502C50.6341 44.7508 49.6437 44.7508 49.2688 45.3502L46.8572 49.2092C46.0995 50.4201 46.0614 51.8885 46.7529 53.1373C47.4454 54.3862 48.7105 55.132 50.1388 55.132C51.5672 55.132 52.8321 54.3862 53.5248 53.1373C54.2164 51.8885 54.1784 50.4201 53.4206 49.2092ZM51.7297 52.1421C51.404 52.7295 50.8096 53.0793 50.1391 53.0793C49.4686 53.0793 48.8742 52.7295 48.5484 52.1421C48.2237 51.5558 48.2417 50.8662 48.5976 50.2978L50.1392 47.831L51.6808 50.2978C52.0364 50.866 52.0545 51.5556 51.7297 52.1421Z" fill="#454545"/>
<path d="M66.597 23.8632C66.597 22.6202 66.113 21.4505 65.2339 20.5716C63.4187 18.7583 60.4668 18.7573 58.6535 20.5686L55.2739 23.9186L53.9435 22.5883L52.4922 24.0396L54.545 26.0924L54.8457 26.3931L49.413 31.8257C49.2206 32.0182 49.1123 32.2787 49.1123 32.5514V35.6305C49.1123 36.1979 49.5714 36.6569 50.1387 36.6569H53.2179C53.4905 36.6569 53.7511 36.5487 53.9435 36.3562L59.3762 30.9235L59.677 31.2242L61.7297 33.277L63.1812 31.8256L61.8573 30.5017L65.234 27.1547C66.113 26.2768 66.597 25.1071 66.597 23.8632ZM52.793 34.6041H51.1651V32.9763L56.2971 27.8443L57.9249 29.4722L52.793 34.6041ZM63.7855 25.7005L60.4057 29.0502L60.102 28.7465L57.0228 25.6674L56.7252 25.3697L60.102 22.0229C61.1164 21.0086 62.7682 21.0086 63.7827 22.0229C64.2738 22.515 64.5445 23.1686 64.5445 23.8632C64.5442 24.5587 64.2737 25.2123 63.7855 25.7005Z" fill="#454545"/>
<path d="M80.9246 49.9228C80.8805 49.5249 80.6089 49.1891 80.229 49.0629C79.8301 48.9296 70.375 45.8654 63.8508 51.3001C61.0271 53.6537 59.9945 56.412 59.7346 58.8208L58.35 55.926V44.6927C59.5449 44.2687 60.4028 43.1271 60.4028 41.7889C60.4028 40.091 59.0215 38.7098 57.3236 38.7098H42.9541C41.2562 38.7098 39.8749 40.091 39.8749 41.7889C39.8749 43.1271 40.733 44.2687 41.9277 44.6927V55.926L41.4274 56.9722C41.4993 53.96 40.9039 50.4962 38.6571 47.351C33.3137 39.8695 21.9732 38.7579 21.4932 38.7139C20.99 38.6658 20.5409 38.9865 20.4097 39.4666C20.2803 39.9417 17.2734 51.187 20.4568 58.6152C23.7644 66.3332 34.296 66.4225 34.7431 66.4225C35.113 66.4225 35.4538 66.224 35.6362 65.9022C35.8186 65.5794 35.8136 65.1845 35.6231 64.8678L32.5439 59.7358C32.4246 59.5373 32.2413 59.384 32.0247 59.3028L27.3979 57.5678L29.7795 57.1708C30.0932 57.1188 30.3649 56.9243 30.5151 56.6446C30.6654 56.3649 30.6776 56.0322 30.5493 55.7415L28.1547 50.355L29.996 51.8283C30.404 52.1531 30.9933 52.123 31.3632 51.7521L32.6903 50.425V56.1584C32.6903 56.3509 32.7445 56.5394 32.8467 56.7027L37.7806 64.5969L33.5484 73.4457C32.7836 75.0455 32.8919 76.8958 33.8371 78.3963C34.7822 79.8958 36.4051 80.7919 38.1782 80.7919H62.0999C63.873 80.7919 65.4959 79.8958 66.4411 78.3963C67.3862 76.8958 67.4945 75.0455 66.7297 73.4457L62.5491 64.7048L66.2577 61.0288C66.372 60.9155 66.4582 60.7772 66.5083 60.6249L67.5878 57.3874L67.6409 57.5457C67.7311 57.8173 67.9316 58.0399 68.1943 58.1572C68.4559 58.2745 68.7566 58.2776 69.0182 58.1643L71.8639 56.9454L64.7753 64.7416C64.5689 64.9691 64.4756 65.2769 64.5198 65.5806C64.5639 65.8843 64.7413 66.1519 65.0038 66.3104C65.922 66.8656 67.5247 67.4411 69.4112 67.4411C71.2695 67.4411 73.4045 66.8818 75.4302 65.1948C81.937 59.7708 80.9687 50.3228 80.9246 49.9228ZM34.743 55.8636V47.9472C34.743 47.5323 34.4934 47.1574 34.1094 46.9989C33.7256 46.8385 33.2845 46.9277 32.9908 47.2214L30.5611 49.6511L26.1468 46.1189C25.7769 45.8242 25.2537 45.8192 24.8778 46.1079C24.5039 46.3976 24.3746 46.9047 24.5671 47.3377L28.1344 55.3635L23.2841 56.1724C22.8261 56.2486 22.4762 56.6235 22.4311 57.0855C22.3861 57.5475 22.6577 57.9826 23.0916 58.146L30.968 61.099L32.8394 64.2183C29.8915 63.8364 24.3536 62.4994 22.3429 57.8073C19.9202 52.1541 21.557 43.5992 22.1796 40.8729C24.8538 41.2799 32.9877 42.9457 36.9871 48.5438C40.3509 53.2537 39.4087 59.0322 38.5758 61.9962L34.743 55.8636ZM64.7048 77.3016C64.1374 78.2018 63.1631 78.7389 62.0997 78.7389H38.1781C37.1146 78.7389 36.1403 78.2016 35.5729 77.3016C35.256 76.7989 35.1135 76.2308 35.114 75.6598H47.4185C47.7443 75.6598 48.0511 75.5044 48.2445 75.2428C48.438 74.9802 48.4951 74.6413 48.3989 74.3297C48.2475 73.8405 48.3187 73.3254 48.5973 72.8782L50.139 70.4114L51.6765 72.8722C51.8619 73.1719 51.9552 73.4956 51.9552 73.8324C51.9552 74.0068 51.9311 74.1662 51.8821 74.3206C51.7819 74.6323 51.8369 74.9731 52.0304 75.2387C52.2239 75.5034 52.5315 75.6596 52.8593 75.6596H65.1638C65.1642 76.2308 65.0217 76.7989 64.7048 77.3016ZM64.5306 73.607H54.0008C53.9627 72.9715 53.7652 72.349 53.4205 71.7898L51.1653 68.181V67.4486H52.1917C55.0213 67.4486 57.3236 65.1463 57.3236 62.3167C57.3236 61.7493 56.8646 61.2903 56.2972 61.2903H54.2444C53.0846 61.2903 52.0256 61.6916 51.1653 62.343V62.3167H50.7302C49.936 60.5074 48.1323 59.2375 46.0333 59.2375H43.9805C43.4132 59.2375 42.9541 59.6965 42.9541 60.2639C42.9541 63.0935 45.2564 65.3958 48.0861 65.3958H49.1125V68.181L46.8572 71.7898C46.5094 72.3471 46.313 72.9725 46.2769 73.607H35.7472L43.8803 56.6013C43.9465 56.463 43.9805 56.3116 43.9805 56.1583V44.868H47.0597V42.8152H42.9541C42.3878 42.8152 41.9277 42.3551 41.9277 41.7888C41.9277 41.2225 42.3878 40.7624 42.9541 40.7624H57.3236C57.8899 40.7624 58.35 41.2225 58.35 41.7888C58.35 42.3551 57.8899 42.8152 57.3236 42.8152H53.218V44.868H56.2972V56.1583C56.2972 56.3116 56.3313 56.463 56.3974 56.6013L64.5306 73.607ZM51.3406 65.3958C51.7647 64.201 52.9063 63.3431 54.2444 63.3431H55.0954C54.6714 64.5379 53.5298 65.3958 52.1917 65.3958H51.3406ZM48.9371 63.3431H48.0861C46.7479 63.3431 45.6063 62.485 45.1823 61.2903H46.0333C47.3715 61.2903 48.5131 62.1483 48.9371 63.3431ZM74.1158 63.6167C71.4265 65.858 68.7522 65.5302 67.2608 65.0591L76.5585 54.8322C76.8832 54.4744 76.9153 53.9391 76.6347 53.5463C76.354 53.1514 75.8349 53.0081 75.3948 53.1985L69.2354 55.8376L68.5608 53.8168C68.4215 53.3978 68.0295 53.1152 67.5875 53.1152C67.1455 53.1152 66.7536 53.3978 66.6143 53.8168L64.6387 59.7436L61.9274 62.4309C61.4713 60.2337 61.2979 56.1001 65.1659 52.8776C69.8999 48.9303 76.793 50.2766 78.927 50.8258C79.0092 52.9639 78.8568 59.6665 74.1158 63.6167Z" fill="#454545"/>
<path d="M42.0341 63.9106L39.9814 68.0159L41.8175 68.9339L43.8701 64.8286L42.0341 63.9106Z" fill="#454545"/>
<path d="M38.955 70.0709L37.9287 72.1235L39.7647 73.0415L40.7911 70.9889L38.955 70.0709Z" fill="#454545"/>
<path d="M39.8751 19.2082C36.4792 19.2082 33.7168 21.9706 33.7168 25.3665C33.7168 28.7625 36.4792 31.5249 39.8751 31.5249C43.2711 31.5249 46.0335 28.7625 46.0335 25.3665C46.0335 21.9706 43.2711 19.2082 39.8751 19.2082ZM39.8751 29.4721C37.6109 29.4721 35.7696 27.6308 35.7696 25.3665C35.7696 23.1023 37.6109 21.261 39.8751 21.261C42.1394 21.261 43.9807 23.1023 43.9807 25.3665C43.9807 27.6308 42.1395 29.4721 39.8751 29.4721Z" fill="#454545"/>
<path d="M69.6402 35.6305C67.376 35.6305 65.5347 37.4718 65.5347 39.7361C65.5347 42.0003 67.376 43.8416 69.6402 43.8416C71.9045 43.8416 73.7458 42.0003 73.7458 39.7361C73.7458 37.4718 71.9046 35.6305 69.6402 35.6305ZM69.6402 41.7888C68.5086 41.7888 67.5875 40.8677 67.5875 39.7361C67.5875 38.6045 68.5086 37.6833 69.6402 37.6833C70.7718 37.6833 71.693 38.6045 71.693 39.7361C71.693 40.8677 70.7718 41.7888 69.6402 41.7888Z" fill="#454545"/>
<path d="M78.878 21.261V19.2082H76.8252V21.261H74.7725V23.3138H76.8252V25.3665H78.878V23.3138H80.9308V21.261H78.878Z" fill="#454545"/>
<path d="M38.8487 24.3401H36.7959V26.3929H38.8487V24.3401Z" fill="#454545"/>
<path d="M26.5318 27.4193V25.3665H24.4791V27.4193H22.4263V29.4721H24.4791V31.5249H26.5318V29.4721H28.5846V27.4193H26.5318Z" fill="#454545"/>
</g>
<defs>
<clipPath id="clip0_157_2382">
<rect width="62" height="62" fill="white" transform="translate(19 19)"/>
</clipPath>
</defs>
</svg>
