<svg width="100" height="100" viewBox="0 0 100 100" fill="none" xmlns="http://www.w3.org/2000/svg">
<rect width="100" height="100" rx="20" fill="#F6623E"/>
<g clip-path="url(#clip0_157_2353)">
<path d="M45.8419 70.6667C45.5772 65.4996 42.7264 60.814 38.2593 58.2037L31.121 50.2728C30.1609 49.185 28.6719 48.7275 27.2667 49.0886V35.5334C27.2667 33.2506 25.4161 31.4 23.1333 31.4C20.8506 31.4 19 33.2506 19 35.5334V55.0913C19.001 56.6724 19.4039 58.2273 20.1708 59.61L29.3333 76.101V79.9667C29.3333 80.5373 29.796 81 30.3667 81H44.8333C45.404 81 45.8667 80.5373 45.8667 79.9667V70.6667H45.8419ZM43.8 78.9334H31.4V75.8334C31.4 75.6576 31.3552 75.4847 31.2698 75.3312L21.977 58.6046C21.3811 57.5294 21.0678 56.3205 21.0667 55.0913V35.5334C21.0667 34.3919 21.9919 33.4667 23.1333 33.4667C24.2748 33.4667 25.2 34.3919 25.2 35.5334V50.3648C23.907 51.8674 23.9367 54.098 25.2692 55.5656L33.7353 64.88L35.2647 63.4892L26.7986 54.1757C26.1238 53.4335 26.1511 52.2921 26.8606 51.5831C27.5935 50.8496 28.7823 50.849 29.5158 51.5821C29.5397 51.606 29.5629 51.6304 29.5855 51.6554L36.8322 59.7072C36.9245 59.7999 37.0287 59.8799 37.1422 59.9448C41.2548 62.3012 43.7939 66.6761 43.8 71.4159V78.9334Z" fill="white"/>
<path d="M76.8666 31.4C74.5839 31.4 72.7333 33.2506 72.7333 35.5334V49.0886C72.3984 49.0039 72.0538 48.9629 71.7082 48.9667C70.625 48.9908 69.6005 49.4635 68.879 50.2718L61.7428 58.2006C57.2696 60.8065 54.4163 65.4963 54.1581 70.6667H54.1333V79.9667C54.1333 80.5373 54.596 81 55.1666 81H69.6333C70.204 81 70.6666 80.5373 70.6666 79.9667V76.0989L79.7155 59.6979C80.556 58.2686 80.9995 56.6409 81 54.9828V35.5334C81 33.2506 79.1494 31.4 76.8666 31.4ZM78.9333 54.9828C78.9318 56.2818 78.5821 57.5568 77.9206 58.6749L68.724 75.3343C68.6412 75.4876 68.5985 75.6592 68.6 75.8334V78.9334H56.2V71.4159C56.2126 66.6576 58.7734 62.2707 62.9104 59.92C63.0067 59.8654 63.0936 59.7956 63.1677 59.7134L70.4145 51.6534C71.1105 50.8829 72.2992 50.8226 73.0697 51.5185C73.8401 52.2145 73.9005 53.4032 73.2045 54.1737L64.7353 63.4871L66.2646 64.88L74.7307 55.5676C76.0645 54.0996 76.0941 51.8676 74.8 50.3648V35.5334C74.8 34.3919 75.7252 33.4667 76.8666 33.4667C78.0081 33.4667 78.9333 34.3919 78.9333 35.5334V54.9828Z" fill="white"/>
<path d="M62.4002 44.8333H60.3336C56.6267 44.8373 53.1551 46.6503 51.0336 49.69V42.7667H52.0669C58.3414 42.7593 63.4262 37.6745 63.4336 31.4C63.4336 30.8293 62.9709 30.3667 62.4002 30.3667H60.3336C56.6267 30.3707 53.1551 32.1837 51.0336 35.2233V28.3H52.0669C56.6304 28.2948 60.3284 24.5968 60.3336 20.0333C60.3336 19.4627 59.8709 19 59.3002 19H57.2336C54.2242 19.0018 51.4537 20.6389 50.0002 23.2739C48.5467 20.6389 45.7762 19.0018 42.7669 19H40.7002C40.1296 19 39.6669 19.4627 39.6669 20.0333C39.6721 24.5968 43.3701 28.2948 47.9336 28.3H48.9669V35.2233C46.8453 32.1837 43.3737 30.3707 39.6669 30.3667H37.6002C37.0296 30.3667 36.5669 30.8293 36.5669 31.4C36.5743 37.6745 41.659 42.7593 47.9336 42.7667H48.9669V49.69C46.8453 46.6503 43.3737 44.8373 39.6669 44.8333H37.6002C37.0296 44.8333 36.5669 45.296 36.5669 45.8667C36.5743 52.1412 41.659 57.226 47.9336 57.2333H48.9669V65.5H51.0336V57.2333H52.0669C58.3414 57.226 63.4262 52.1412 63.4336 45.8667C63.4336 45.296 62.9709 44.8333 62.4002 44.8333ZM60.3336 32.4333H61.3101C60.7779 37.1377 56.8012 40.6943 52.0669 40.7H51.0904C51.6226 35.9956 55.5992 32.439 60.3336 32.4333ZM57.2336 21.0667H58.1811C57.6729 24.0478 55.0911 26.2296 52.0669 26.2333H51.1193C51.6276 23.2522 54.2094 21.0704 57.2336 21.0667ZM47.9336 26.2333C44.9094 26.2296 42.3276 24.0478 41.8193 21.0667H42.7669C45.7911 21.0704 48.3729 23.2522 48.8811 26.2333H47.9336ZM47.9336 40.7C43.1992 40.6943 39.2226 37.1377 38.6904 32.4333H39.6669C44.4012 32.439 48.3779 35.9956 48.9101 40.7H47.9336ZM47.9336 55.1667C43.1992 55.161 39.2226 51.6044 38.6904 46.9H39.6669C44.4012 46.9057 48.3779 50.4623 48.9101 55.1667H47.9336ZM52.0669 55.1667H51.0904C51.6226 50.4623 55.5992 46.9057 60.3336 46.9H61.3101C60.7779 51.6044 56.8012 55.161 52.0669 55.1667Z" fill="white"/>
</g>
<defs>
<clipPath id="clip0_157_2353">
<rect width="62" height="62" fill="white" transform="translate(19 19)"/>
</clipPath>
</defs>
</svg>
