<svg width="100" height="100" viewBox="0 0 100 100" fill="none" xmlns="http://www.w3.org/2000/svg">
<rect width="100" height="100" rx="20" fill="#FFF8F6"/>
<path d="M48.9535 42.6402C49.3575 43.0238 50.0291 42.9463 50.3361 42.4832L56.3809 33.3605C56.6581 32.9423 56.5436 32.3785 56.1255 32.1013C55.7078 31.8246 55.1439 31.939 54.8667 32.3567L49.4194 40.5778L46.3926 37.7038C46.0288 37.3584 45.4541 37.3736 45.1083 37.7373C44.763 38.1011 44.7781 38.6758 45.1419 39.0211C45.1414 39.0211 48.9502 42.6374 48.9535 42.6402Z" fill="#454545"/>
<path d="M49.5733 56.4927C49.7469 56.5721 49.939 56.6142 50.1301 56.6142H50.1376C50.332 56.6133 50.5269 56.5688 50.701 56.4856C64.5114 49.9176 66.8519 35.7468 67.2397 31.5601C67.3287 30.6041 66.7904 29.7139 65.9006 29.3449C63.1514 28.2035 61.2825 25.6511 61.0233 22.6838C60.9433 21.7704 60.1629 21.0585 59.2433 21.0585H59.2324L40.6266 21.1678C39.6886 21.173 38.9265 21.8858 38.8546 22.8257C38.6257 25.794 36.7842 28.3648 34.0487 29.5351C33.1679 29.9116 32.6429 30.8066 32.7432 31.7621C33.1802 35.9441 35.6868 50.087 49.5733 56.4927ZM34.763 31.2049C38.1172 29.7707 40.3768 26.6218 40.6639 22.9837L59.2163 22.8749C59.546 26.5049 61.8378 29.625 65.2043 31.0223C65.3548 31.0852 65.446 31.2337 65.4314 31.3927C65.0672 35.3164 62.8879 48.5463 50.1267 54.7463C37.2922 48.6972 34.9597 35.4928 34.5492 31.5734C34.5326 31.4149 34.6187 31.2668 34.763 31.2049Z" fill="#454545"/>
<path d="M37.0309 36.2398C37.1406 36.6437 37.6529 37.0137 38.1458 36.8779C38.6292 36.7445 38.9154 36.2474 38.7839 35.7635C38.5526 34.9111 38.3582 34.0469 38.2054 33.1907C40.6727 31.5829 42.5037 29.1832 43.402 26.3806L56.518 26.3035C57.4489 29.0948 59.3079 31.4736 61.7941 33.0521C61.6517 33.9106 61.4672 34.7777 61.2454 35.6334C61.1195 36.1192 61.4114 36.6149 61.8967 36.7407C62.383 36.8665 62.8782 36.5747 63.0041 36.0889C63.2642 35.0842 63.4761 34.0644 63.6332 33.0578C63.7212 32.4953 63.4638 31.9424 62.9785 31.6491C60.6626 30.2504 58.9507 28.056 58.1584 25.4705C57.9801 24.8891 57.4319 24.4852 56.8236 24.4852H56.815L43.0832 24.5656C42.4711 24.5694 41.9233 24.9814 41.7516 25.567C40.9901 28.1615 39.3037 30.3757 37.0044 31.8019C36.5224 32.1004 36.2721 32.6562 36.3663 33.2181C36.5356 34.2223 36.7589 35.2389 37.0309 36.2398Z" fill="#454545"/>
<path d="M61.1683 38.9327C60.7047 38.7406 60.174 38.962 59.9824 39.4256C57.8836 44.5125 54.5611 48.3799 50.1043 50.9252C45.6129 48.4291 42.2422 44.5943 40.0842 39.5235C39.8875 39.0623 39.3539 38.8475 38.8927 39.0439C38.431 39.2402 38.2163 39.7737 38.4126 40.2349C40.7677 45.7683 44.4781 49.9399 49.4406 52.6328C49.6497 52.7468 49.8786 52.8031 50.1071 52.8031C50.3412 52.8031 50.5749 52.744 50.7878 52.6253C55.7129 49.8775 59.3712 45.6695 61.6616 40.1181C61.8532 39.6545 61.6323 39.1238 61.1683 38.9327Z" fill="#454545"/>
<path d="M24.827 67.5311C23.0555 67.5311 21.6138 68.9724 21.6138 70.7444C21.6138 72.5163 23.0555 73.9576 24.827 73.9576C26.599 73.9576 28.0407 72.5163 28.0407 70.7444C28.0407 68.9724 26.5994 67.5311 24.827 67.5311ZM24.827 72.1412C24.0569 72.1412 23.4302 71.5149 23.4302 70.7444C23.4302 69.9743 24.0569 69.3475 24.827 69.3475C25.5976 69.3475 26.2243 69.9743 26.2243 70.7444C26.2243 71.5149 25.5976 72.1412 24.827 72.1412Z" fill="#454545"/>
<path d="M80.3486 58.6398C79.1845 56.9293 76.8407 56.4762 75.1241 57.6294L63.2512 65.5757L60.7168 65.4333L60.652 64.7843C60.3994 62.2428 58.4567 60.2178 55.9279 59.8602C55.9118 59.8578 55.8962 59.8559 55.8801 59.8545L43.0868 58.7334C42.654 58.6658 41.2685 58.268 37.4616 56.0845C35.4829 54.9497 33.2536 54.3092 30.9888 54.2222V51.8462C30.9888 50.6537 30.0191 49.684 28.8266 49.684H21.1622C19.9702 49.684 19 50.6542 19 51.8462V75.2471C19 76.4391 19.9702 77.4093 21.1622 77.4093H28.8266C30.0186 77.4093 30.9888 76.4391 30.9888 75.2471V74.6024L42.1719 78.8373C42.1965 78.8468 43.1047 79.1864 44.7745 79.0289C44.7792 79.0284 63.3563 76.3502 63.3563 76.3502C63.361 76.3497 63.3652 76.3488 63.37 76.3478C64.9574 76.0948 66.4545 75.4235 67.7 74.408C67.7114 74.3985 67.7222 74.389 67.7331 74.3796L79.7342 63.5857C81.1485 62.3298 81.4129 60.2036 80.3486 58.6398ZM78.5237 62.2314L66.5354 73.014C65.543 73.8186 64.352 74.3507 63.0899 74.5532L44.5219 77.23C44.5177 77.2305 44.5115 77.2314 44.5058 77.2324C44.503 77.2329 44.4997 77.2333 44.4969 77.2338C43.9415 77.3213 43.363 77.2844 42.7769 77.1241L30.9888 72.6601V62.2882C30.9888 61.7863 30.582 61.38 30.0805 61.38C29.5787 61.38 29.1723 61.7863 29.1723 62.2882V75.2471C29.1723 75.4377 29.0172 75.5929 28.8266 75.5929H21.1622C20.9716 75.5929 20.8164 75.4377 20.8164 75.2471V51.8462C20.8164 51.6556 20.9716 51.5004 21.1622 51.5004H28.8266C29.0172 51.5004 29.1723 51.6556 29.1723 51.8462V58.1857C29.1723 58.6875 29.5791 59.0939 30.0805 59.0939C30.5824 59.0939 30.9888 58.6871 30.9888 58.1857V56.0405C32.9371 56.1266 34.8538 56.6829 36.5576 57.6606C41.1493 60.2939 42.4316 60.4756 42.8531 60.5352C42.8692 60.5375 42.8848 60.5389 42.9009 60.5408L55.6957 61.6619C57.3825 61.9112 58.6757 63.2659 58.8446 64.9641L58.8928 65.448L41.7633 66.5056C41.7514 66.5047 41.7396 66.5038 41.7292 66.5028C41.1739 66.4527 40.6725 66.1901 40.3163 65.7635C39.9951 65.378 39.4223 65.3259 39.0372 65.6476C38.6517 65.9688 38.5997 66.5416 38.9213 66.9266C39.5878 67.726 40.5282 68.2043 41.5674 68.3121C42.1284 68.3708 59.8918 67.2062 59.8918 67.2062L63.4527 67.4063C63.6495 67.4176 63.8449 67.3637 64.0085 67.254L76.1359 59.1378C77.0266 58.5395 78.2427 58.7741 78.8468 59.6615C79.3988 60.4732 79.2616 61.5763 78.5237 62.2314Z" fill="#454545"/>
</svg>
